<svg width="18" height="14" viewBox="0 0 18 14" fill="none" xmlns="http://www.w3.org/2000/svg">
<path d="M14.625 5.75C14.625 5.91576 14.5592 6.07473 14.4419 6.19194C14.3247 6.30915 14.1658 6.375 14 6.375H10.875C10.7092 6.375 10.5503 6.30915 10.4331 6.19194C10.3158 6.07473 10.25 5.91576 10.25 5.75C10.25 5.58424 10.3158 5.42527 10.4331 5.30806C10.5503 5.19085 10.7092 5.125 10.875 5.125H14C14.1658 5.125 14.3247 5.19085 14.4419 5.30806C14.5592 5.42527 14.625 5.58424 14.625 5.75ZM14 7.625H10.875C10.7092 7.625 10.5503 7.69085 10.4331 7.80806C10.3158 7.92527 10.25 8.08424 10.25 8.25C10.25 8.41576 10.3158 8.57473 10.4331 8.69194C10.5503 8.80915 10.7092 8.875 10.875 8.875H14C14.1658 8.875 14.3247 8.80915 14.4419 8.69194C14.5592 8.57473 14.625 8.41576 14.625 8.25C14.625 8.08424 14.5592 7.92527 14.4419 7.80806C14.3247 7.69085 14.1658 7.625 14 7.625ZM17.125 1.375V12.625C17.125 12.9565 16.9933 13.2745 16.7589 13.5089C16.5245 13.7433 16.2065 13.875 15.875 13.875H2.125C1.79348 13.875 1.47554 13.7433 1.24112 13.5089C1.0067 13.2745 0.875 12.9565 0.875 12.625V1.375C0.875 1.04348 1.0067 0.725537 1.24112 0.491116C1.47554 0.256696 1.79348 0.125 2.125 0.125H15.875C16.2065 0.125 16.5245 0.256696 16.7589 0.491116C16.9933 0.725537 17.125 1.04348 17.125 1.375ZM15.875 12.625V1.375H2.125V12.625H15.875ZM9.60469 9.96875C9.64613 10.1293 9.62208 10.2998 9.53784 10.4426C9.45359 10.5855 9.31605 10.689 9.15547 10.7305C8.99489 10.7719 8.82442 10.7479 8.68157 10.6636C8.53872 10.5794 8.43519 10.4418 8.39375 10.2812C8.18828 9.47969 7.37344 8.875 6.49922 8.875C5.625 8.875 4.81094 9.47969 4.60469 10.2812C4.56325 10.4418 4.45971 10.5794 4.31686 10.6636C4.17401 10.7479 4.00355 10.7719 3.84297 10.7305C3.68239 10.689 3.54485 10.5855 3.4606 10.4426C3.37636 10.2998 3.35231 10.1293 3.39375 9.96875C3.59656 9.21387 4.07598 8.56293 4.73672 8.14531C4.3856 7.79628 4.14602 7.35085 4.04835 6.86549C3.95068 6.38013 3.99932 5.8767 4.1881 5.41902C4.37688 4.96134 4.6973 4.57001 5.10875 4.29465C5.52019 4.01929 6.00413 3.87229 6.49922 3.87229C6.99431 3.87229 7.47825 4.01929 7.88969 4.29465C8.30114 4.57001 8.62156 4.96134 8.81034 5.41902C8.99912 5.8767 9.04776 6.38013 8.95009 6.86549C8.85242 7.35085 8.61284 7.79628 8.26172 8.14531C8.92318 8.56233 9.40303 9.21347 9.60547 9.96875H9.60469ZM6.5 7.625C6.74723 7.625 6.9889 7.55169 7.19446 7.41434C7.40002 7.27699 7.56024 7.08176 7.65485 6.85335C7.74946 6.62495 7.77421 6.37361 7.72598 6.13114C7.67775 5.88866 7.5587 5.66593 7.38388 5.49112C7.20907 5.3163 6.98634 5.19725 6.74386 5.14902C6.50139 5.10079 6.25005 5.12554 6.02165 5.22015C5.79324 5.31476 5.59801 5.47498 5.46066 5.68054C5.32331 5.8861 5.25 6.12777 5.25 6.375C5.25 6.70652 5.3817 7.02446 5.61612 7.25888C5.85054 7.4933 6.16848 7.625 6.5 7.625Z" fill="#1C1C1C"/>
</svg>
