<svg width="16" height="16" viewBox="0 0 16 16" fill="none" xmlns="http://www.w3.org/2000/svg">
<path d="M12.375 6.75C12.375 6.91576 12.3092 7.07473 12.1919 7.19194C12.0747 7.30915 11.9158 7.375 11.75 7.375H6.75C6.58424 7.375 6.42527 7.30915 6.30806 7.19194C6.19085 7.07473 6.125 6.91576 6.125 6.75C6.125 6.58424 6.19085 6.42527 6.30806 6.30806C6.42527 6.19085 6.58424 6.125 6.75 6.125H11.75C11.9158 6.125 12.0747 6.19085 12.1919 6.30806C12.3092 6.42527 12.375 6.58424 12.375 6.75ZM11.75 8.625H6.75C6.58424 8.625 6.42527 8.69085 6.30806 8.80806C6.19085 8.92527 6.125 9.08424 6.125 9.25C6.125 9.41576 6.19085 9.57473 6.30806 9.69194C6.42527 9.80915 6.58424 9.875 6.75 9.875H11.75C11.9158 9.875 12.0747 9.80915 12.1919 9.69194C12.3092 9.57473 12.375 9.41576 12.375 9.25C12.375 9.08424 12.3092 8.92527 12.1919 8.80806C12.0747 8.69085 11.9158 8.625 11.75 8.625ZM15.5 1.75V14.25C15.5 14.5815 15.3683 14.8995 15.1339 15.1339C14.8995 15.3683 14.5815 15.5 14.25 15.5H1.75C1.41848 15.5 1.10054 15.3683 0.866116 15.1339C0.631696 14.8995 0.5 14.5815 0.5 14.25V1.75C0.5 1.41848 0.631696 1.10054 0.866116 0.866116C1.10054 0.631696 1.41848 0.5 1.75 0.5H14.25C14.5815 0.5 14.8995 0.631696 15.1339 0.866116C15.3683 1.10054 15.5 1.41848 15.5 1.75ZM1.75 14.25H3.625V1.75H1.75V14.25ZM14.25 14.25V1.75H4.875V14.25H14.25Z" fill="#1C1C1C"/>
</svg>
