<svg width="20" height="15" viewBox="0 0 20 15" fill="none" xmlns="http://www.w3.org/2000/svg">
<path d="M19.125 8.75006C19.0593 8.7993 18.9846 8.83513 18.9051 8.8555C18.8256 8.87587 18.7429 8.88038 18.6616 8.86878C18.5804 8.85717 18.5022 8.82967 18.4316 8.78785C18.3609 8.74604 18.2992 8.69072 18.25 8.62506C17.8733 8.1187 17.383 7.70786 16.8185 7.42562C16.254 7.14337 15.6311 6.99761 15 7.00006C14.8342 7.00006 14.6753 6.93421 14.5581 6.817C14.4408 6.69979 14.375 6.54082 14.375 6.37506C14.375 6.2093 14.4408 6.05033 14.5581 5.93312C14.6753 5.81591 14.8342 5.75006 15 5.75006C15.3507 5.75003 15.6943 5.65165 15.9919 5.46611C16.2895 5.28056 16.529 5.01528 16.6834 4.7004C16.8378 4.38552 16.9007 4.03366 16.8652 3.68479C16.8296 3.33592 16.6969 3.00402 16.4821 2.72679C16.2673 2.44957 15.9791 2.23812 15.6502 2.11648C15.3213 1.99483 14.9649 1.96787 14.6214 2.03864C14.278 2.10941 13.9612 2.27509 13.7072 2.51685C13.4532 2.75861 13.272 3.06676 13.1844 3.40631C13.1639 3.48582 13.1279 3.56051 13.0785 3.62612C13.0291 3.69172 12.9673 3.74696 12.8966 3.78867C12.8258 3.83039 12.7476 3.85776 12.6663 3.86923C12.5849 3.8807 12.5022 3.87605 12.4227 3.85553C12.3431 3.83501 12.2685 3.79903 12.2028 3.74964C12.1372 3.70026 12.082 3.63844 12.0403 3.5677C11.9986 3.49697 11.9712 3.41872 11.9597 3.3374C11.9483 3.25609 11.9529 3.17332 11.9734 3.09381C12.0951 2.62296 12.325 2.18701 12.6448 1.82065C12.9647 1.45428 13.3656 1.16761 13.8157 0.983457C14.2658 0.799299 14.7526 0.722731 15.2375 0.759848C15.7224 0.796964 16.192 0.946738 16.6088 1.19725C17.0256 1.44777 17.3782 1.79211 17.6386 2.20288C17.8989 2.61366 18.0598 3.07952 18.1084 3.5634C18.157 4.04728 18.092 4.53583 17.9186 4.99017C17.7451 5.44452 17.4681 5.85211 17.1094 6.18053C17.9592 6.54849 18.698 7.13241 19.2523 7.87428C19.3016 7.9401 19.3374 8.015 19.3576 8.09468C19.3779 8.17435 19.3822 8.25724 19.3704 8.33859C19.3585 8.41994 19.3308 8.49816 19.2887 8.56877C19.2466 8.63937 19.191 8.70098 19.125 8.75006ZM14.9156 13.5626C14.9593 13.6337 14.9882 13.7129 15.0007 13.7954C15.0133 13.8779 15.0092 13.9621 14.9887 14.043C14.9681 14.1239 14.9316 14.1999 14.8813 14.2664C14.8309 14.333 14.7677 14.3888 14.6954 14.4305C14.6232 14.4723 14.5433 14.4991 14.4605 14.5095C14.3776 14.5198 14.2936 14.5135 14.2133 14.4909C14.1329 14.4682 14.058 14.4297 13.9927 14.3776C13.9275 14.3255 13.8734 14.2609 13.8336 14.1876C13.4398 13.5211 12.8791 12.9687 12.2068 12.5851C11.5345 12.2014 10.7737 11.9996 9.99961 11.9996C9.2255 11.9996 8.46476 12.2014 7.79242 12.5851C7.12009 12.9687 6.55939 13.5211 6.16563 14.1876C6.12655 14.2622 6.07278 14.3283 6.00753 14.3816C5.94228 14.435 5.86692 14.4746 5.78596 14.4981C5.70501 14.5216 5.62014 14.5285 5.53646 14.5183C5.45278 14.5081 5.37202 14.4811 5.29904 14.439C5.22607 14.3968 5.16237 14.3403 5.1118 14.2728C5.06123 14.2054 5.02482 14.1284 5.00477 14.0465C4.98471 13.9647 4.98143 13.8796 4.99511 13.7964C5.00879 13.7132 5.03915 13.6337 5.08437 13.5626C5.69031 12.5214 6.61421 11.7021 7.72031 11.2251C7.09791 10.7485 6.64049 10.0889 6.41234 9.33899C6.1842 8.58904 6.1968 7.78646 6.44837 7.04405C6.69995 6.30163 7.17785 5.65672 7.8149 5.19996C8.45195 4.7432 9.21612 4.49755 10 4.49755C10.7839 4.49755 11.5481 4.7432 12.1851 5.19996C12.8222 5.65672 13.3001 6.30163 13.5516 7.04405C13.8032 7.78646 13.8158 8.58904 13.5877 9.33899C13.3595 10.0889 12.9021 10.7485 12.2797 11.2251C13.3858 11.7021 14.3097 12.5214 14.9156 13.5626ZM10 10.7501C10.4945 10.7501 10.9778 10.6034 11.3889 10.3287C11.8 10.054 12.1205 9.66358 12.3097 9.20677C12.4989 8.74995 12.5484 8.24728 12.452 7.76233C12.3555 7.27738 12.1174 6.83192 11.7678 6.48229C11.4181 6.13266 10.9727 5.89456 10.4877 5.79809C10.0028 5.70163 9.50011 5.75114 9.04329 5.94036C8.58648 6.12958 8.19603 6.45001 7.92133 6.86113C7.64662 7.27226 7.5 7.75561 7.5 8.25006C7.5 8.9131 7.76339 9.54898 8.23223 10.0178C8.70107 10.4867 9.33696 10.7501 10 10.7501ZM5.625 6.37506C5.625 6.2093 5.55915 6.05033 5.44194 5.93312C5.32473 5.81591 5.16576 5.75006 5 5.75006C4.64932 5.75003 4.30567 5.65165 4.0081 5.46611C3.71053 5.28056 3.47095 5.01528 3.31659 4.7004C3.16222 4.38552 3.09926 4.03366 3.13484 3.68479C3.17043 3.33592 3.30314 3.00402 3.5179 2.72679C3.73266 2.44957 4.02086 2.23812 4.34977 2.11648C4.67867 1.99483 5.0351 1.96787 5.37857 2.03864C5.72203 2.10941 6.03877 2.27509 6.29279 2.51685C6.54682 2.75861 6.72795 3.06676 6.81563 3.40631C6.85707 3.56689 6.9606 3.70443 7.10345 3.78867C7.2463 3.87292 7.41676 3.89697 7.57734 3.85553C7.73792 3.81409 7.87547 3.71055 7.95971 3.5677C8.04396 3.42485 8.068 3.25439 8.02656 3.09381C7.90488 2.62296 7.67498 2.18701 7.35517 1.82065C7.03535 1.45428 6.63444 1.16761 6.18434 0.983457C5.73424 0.799299 5.24737 0.722731 4.76247 0.759848C4.27757 0.796964 3.80802 0.946738 3.39119 1.19725C2.97436 1.44777 2.62175 1.79211 2.36142 2.20288C2.10109 2.61366 1.94022 3.07952 1.89162 3.5634C1.84301 4.04728 1.90801 4.53583 2.08144 4.99017C2.25487 5.44452 2.53195 5.85211 2.89063 6.18053C2.04163 6.54884 1.30368 7.13273 0.750001 7.87428C0.650441 8.00689 0.607637 8.17361 0.631006 8.33778C0.654375 8.50195 0.742002 8.65011 0.87461 8.74967C1.00722 8.84923 1.17395 8.89203 1.33811 8.86866C1.50228 8.84529 1.65044 8.75767 1.75 8.62506C2.12671 8.1187 2.61704 7.70786 3.18153 7.42562C3.74602 7.14337 4.36889 6.99761 5 7.00006C5.16576 7.00006 5.32473 6.93421 5.44194 6.817C5.55915 6.69979 5.625 6.54082 5.625 6.37506Z" fill="#1C1C1C"/>
</svg>
