<svg width="18" height="18" viewBox="0 0 18 18" fill="none" xmlns="http://www.w3.org/2000/svg">
<path d="M6.8125 8.09609C6.90753 8.04123 6.98644 7.96231 7.0413 7.86727C7.09616 7.77223 7.12502 7.66442 7.125 7.55469V1.92969C7.12444 1.83004 7.10007 1.73198 7.05391 1.64367C7.00775 1.55536 6.94114 1.47936 6.85965 1.42202C6.77815 1.36469 6.68412 1.32766 6.58541 1.31405C6.4867 1.30043 6.38616 1.31062 6.29219 1.34375C4.46795 1.98939 2.93384 3.26457 1.96564 4.94005C0.997435 6.61554 0.658639 8.58145 1.01016 10.4844C1.02838 10.5828 1.06996 10.6754 1.13141 10.7544C1.19286 10.8333 1.27238 10.8964 1.36328 10.9383C1.4452 10.9766 1.53457 10.9963 1.625 10.9961C1.7347 10.9961 1.84247 10.9673 1.9375 10.9125L6.8125 8.09609ZM5.875 2.87656V7.19375L2.13437 9.35234C2.125 9.23438 2.125 9.11563 2.125 9C2.12611 7.73309 2.47679 6.49106 3.13843 5.41066C3.80008 4.33025 4.74702 3.45337 5.875 2.87656ZM16.0578 4.97812C16.0508 4.96406 16.0437 4.94922 16.0352 4.93516C16.0266 4.92109 16.0195 4.90938 16.0109 4.89688C15.2946 3.67328 14.2706 2.65834 13.0408 1.95282C11.8109 1.24729 10.4179 0.875723 9 0.875C8.83424 0.875 8.67527 0.940848 8.55806 1.05806C8.44085 1.17527 8.375 1.33424 8.375 1.5V8.67422L2.21797 12.2602C2.14652 12.3016 2.08399 12.3567 2.03399 12.4225C1.98399 12.4882 1.94751 12.5632 1.92666 12.6431C1.90581 12.723 1.901 12.8062 1.91252 12.888C1.92404 12.9698 1.95164 13.0485 1.99375 13.1195C2.89709 14.6578 4.28157 15.856 5.93353 16.5293C7.5855 17.2025 9.41313 17.3134 11.1344 16.8448C12.8556 16.3762 14.3748 15.3541 15.4575 13.9364C16.5401 12.5186 17.1261 10.7839 17.125 9C17.1268 7.58916 16.7588 6.20247 16.0578 4.97812ZM9.625 2.15313C10.6162 2.24437 11.5759 2.54965 12.4377 3.04791C13.2994 3.54617 14.0428 4.22552 14.6164 5.03906L9.625 7.94609V2.15313ZM9 15.875C7.90892 15.8722 6.83401 15.6111 5.86324 15.113C4.89248 14.6149 4.05345 13.894 3.41484 13.0094L9.30547 9.57891L9.32266 9.56797L15.2422 6.12031C15.7254 7.16777 15.9372 8.31996 15.8582 9.47078C15.7792 10.6216 15.4119 11.734 14.7902 12.7057C14.1684 13.6773 13.3122 14.4768 12.3003 15.0307C11.2885 15.5845 10.1535 15.8749 9 15.875Z" fill="#1C1C1C"/>
</svg>
