<svg width="18" height="15" viewBox="0 0 18 15" fill="none" xmlns="http://www.w3.org/2000/svg">
<path d="M17.125 1V11C17.125 11.1658 17.0592 11.3247 16.9419 11.4419C16.8247 11.5592 16.6658 11.625 16.5 11.625H11.5C10.837 11.625 10.2011 11.8884 9.73223 12.3572C9.26339 12.8261 9 13.462 9 14.125C9 13.462 8.73661 12.8261 8.26777 12.3572C7.79893 11.8884 7.16304 11.625 6.5 11.625H1.5C1.33424 11.625 1.17527 11.5592 1.05806 11.4419C0.940848 11.3247 0.875 11.1658 0.875 11V1C0.875 0.83424 0.940848 0.675269 1.05806 0.558058C1.17527 0.440848 1.33424 0.375 1.5 0.375H6.5C7.16304 0.375 7.79893 0.638392 8.26777 1.10723C8.73661 1.57607 9 2.21196 9 2.875C9 2.21196 9.26339 1.57607 9.73223 1.10723C10.2011 0.638392 10.837 0.375 11.5 0.375H16.5C16.6658 0.375 16.8247 0.440848 16.9419 0.558058C17.0592 0.675269 17.125 0.83424 17.125 1Z" fill="#1C1C1C" fill-opacity="0.1"/>
</svg>
