<svg width="18" height="18" viewBox="0 0 18 18" fill="none" xmlns="http://www.w3.org/2000/svg">
<path d="M12.2477 4.67112C11.682 3.34687 10.6765 2.25855 9.40101 1.59017C8.12553 0.921778 6.65839 0.714323 5.2476 1.00287C3.83682 1.29142 2.56895 2.05828 1.65834 3.17379C0.747729 4.2893 0.250248 5.68504 0.25 7.12503V12.2813C0.25 12.5714 0.365234 12.8496 0.570352 13.0547C0.77547 13.2598 1.05367 13.375 1.34375 13.375H5.77109C6.25882 14.4888 7.06026 15.4365 8.07758 16.1024C9.09491 16.7684 10.2841 17.1237 11.5 17.125H16.6562C16.9463 17.125 17.2245 17.0098 17.4296 16.8047C17.6348 16.5996 17.75 16.3214 17.75 16.0313V10.875C17.7497 9.34711 17.1897 7.87223 16.1759 6.72913C15.1621 5.58602 13.7646 4.8539 12.2477 4.67112ZM1.5 7.12503C1.5 6.13612 1.79324 5.16942 2.34265 4.34718C2.89206 3.52493 3.67295 2.88407 4.58658 2.50563C5.50021 2.12719 6.50555 2.02818 7.47545 2.2211C8.44536 2.41403 9.33627 2.89023 10.0355 3.5895C10.7348 4.28876 11.211 5.17967 11.4039 6.14958C11.5969 7.11948 11.4978 8.12482 11.1194 9.03845C10.741 9.95208 10.1001 10.733 9.27785 11.2824C8.4556 11.8318 7.48891 12.125 6.5 12.125H1.5V7.12503ZM16.5 15.875H11.5C10.6159 15.874 9.74775 15.6391 8.98375 15.1941C8.21976 14.7492 7.5871 14.11 7.15 13.3414C8.00603 13.2526 8.83445 12.9878 9.58328 12.5636C10.3321 12.1394 10.9852 11.565 11.5015 10.8765C12.0178 10.1879 12.3862 9.40007 12.5836 8.56238C12.7809 7.72469 12.803 6.85525 12.6484 6.00862C13.7447 6.26735 14.7216 6.88868 15.4206 7.77193C16.1197 8.65518 16.5 9.74861 16.5 10.875V15.875Z" fill="#1C1C1C"/>
</svg>
