<svg width="14" height="18" viewBox="0 0 14 18" fill="none" xmlns="http://www.w3.org/2000/svg">
<path d="M2.87422 14.5C2.9399 14.5494 3.01468 14.5853 3.09426 14.6057C3.17385 14.6262 3.25669 14.6307 3.33803 14.6191C3.41937 14.6075 3.49763 14.58 3.56832 14.5381C3.63901 14.4962 3.70075 14.4408 3.75 14.375C4.12841 13.8705 4.61909 13.4609 5.1832 13.1789C5.7473 12.8968 6.36932 12.75 7 12.75C7.63068 12.75 8.25271 12.8968 8.81681 13.1789C9.38091 13.4609 9.87159 13.8705 10.25 14.375C10.2992 14.4407 10.3609 14.496 10.4316 14.5378C10.5022 14.5796 10.5804 14.6071 10.6616 14.6187C10.7429 14.6303 10.8256 14.6258 10.9051 14.6054C10.9846 14.5851 11.0593 14.5492 11.125 14.5C11.1907 14.4508 11.246 14.3891 11.2878 14.3184C11.3296 14.2478 11.3571 14.1696 11.3687 14.0884C11.3803 14.0071 11.3758 13.9244 11.3554 13.8449C11.3351 13.7654 11.2992 13.6907 11.25 13.625C10.6966 12.883 9.95858 12.2988 9.10938 11.9305C9.57476 11.5056 9.90081 10.9499 10.0447 10.3364C10.1887 9.72289 10.1438 9.0802 9.9159 8.49267C9.68803 7.90514 9.28787 7.40023 8.76791 7.0442C8.24796 6.68816 7.63251 6.49765 7.00234 6.49765C6.37218 6.49765 5.75673 6.68816 5.23678 7.0442C4.71682 7.40023 4.31666 7.90514 4.08879 8.49267C3.86093 9.0802 3.81602 9.72289 3.95995 10.3364C4.10388 10.9499 4.42993 11.5056 4.89531 11.9305C4.0444 12.2981 3.30472 12.8824 2.75 13.625C2.65046 13.7575 2.60763 13.9241 2.63092 14.0882C2.65422 14.2523 2.74173 14.4004 2.87422 14.5ZM7 7.75C7.37084 7.75 7.73335 7.85997 8.04169 8.06599C8.35004 8.27202 8.59036 8.56486 8.73227 8.90747C8.87419 9.25008 8.91132 9.62708 8.83897 9.9908C8.76663 10.3545 8.58805 10.6886 8.32583 10.9508C8.0636 11.213 7.72951 11.3916 7.3658 11.464C7.00208 11.5363 6.62508 11.4992 6.28247 11.3573C5.93986 11.2154 5.64702 10.975 5.44099 10.6667C5.23497 10.3584 5.125 9.99584 5.125 9.625C5.125 9.12772 5.32254 8.65081 5.67417 8.29917C6.02581 7.94754 6.50272 7.75 7 7.75ZM12.625 0.875H1.375C1.04348 0.875 0.725537 1.0067 0.491116 1.24112C0.256696 1.47554 0.125 1.79348 0.125 2.125V15.875C0.125 16.2065 0.256696 16.5245 0.491116 16.7589C0.725537 16.9933 1.04348 17.125 1.375 17.125H12.625C12.9565 17.125 13.2745 16.9933 13.5089 16.7589C13.7433 16.5245 13.875 16.2065 13.875 15.875V2.125C13.875 1.79348 13.7433 1.47554 13.5089 1.24112C13.2745 1.0067 12.9565 0.875 12.625 0.875ZM12.625 15.875H1.375V2.125H12.625V15.875ZM3.875 4C3.875 3.83424 3.94085 3.67527 4.05806 3.55806C4.17527 3.44085 4.33424 3.375 4.5 3.375H9.5C9.66576 3.375 9.82473 3.44085 9.94194 3.55806C10.0592 3.67527 10.125 3.83424 10.125 4C10.125 4.16576 10.0592 4.32473 9.94194 4.44194C9.82473 4.55915 9.66576 4.625 9.5 4.625H4.5C4.33424 4.625 4.17527 4.55915 4.05806 4.44194C3.94085 4.32473 3.875 4.16576 3.875 4Z" fill="#1C1C1C"/>
</svg>
